# xmcd
#
# Track frame offsets:
#	150
#	13400
#	29060
#	45425
#	63475
#	86075
#	103725
#	127250
#	142500
#	165937
#	181442
#
# Disc length: 2737 seconds
#
# Revision: 10
# Processed by: cddbd v1.5.2PL0 Copyright (c) Steve Scherf et al.
# Submitted via: audiograbber 1.83.01
#
DISCID=940aaf0b
DTITLE=Trude Herr - Ich sage was ich meine
DYEAR=1987
DGENRE=Kölsch
TTITLE0=Trude Herr - Ich sage was ich meine
TTITLE1=Trude Herr - Manchmol
TTITLE2=Trude Herr - Älter sein
TTITLE3=Trude Herr - Zeiger an der Uhr
TTITLE4=Trude Herr - Ich weiss jenau wat de meinz
TTITLE5=Trude Herr - Die Unschuld
TTITLE6=Trude Herr - Föhlenz
TTITLE7=Trude Herr mit Wolfgang Niedecken - Beast Of Burden (Die Hipp vum Nümaa
TTITLE7=t)
TTITLE8=Trude Herr - Nä, ich dunn et jetzt nit mieh
TTITLE9=Trude Herr - Die Stadt
TTITLE10=Trude Herr mit Wolfgang Niedecken and Tommy Engel - Niemals geht man so 
TTITLE10=ganz
EXTD=YEAR: 1987
EXTT0=
EXTT1=
EXTT2=
EXTT3=
EXTT4=
EXTT5=
EXTT6=
EXTT7=
EXTT8=
EXTT9=
EXTT10=
PLAYORDER=
